# xmcd
#
# Track frame offsets:
#       150
#       21060
#       33092
#       45568
#       67052
#       75023
#       90754
#       107582
#       120804
#       135596
#       145801
#       160943
#       171969
#       186755
#
# Disc length: 2692 seconds
#
# Revision: 1
# Processed by: cddbd v1.5.1PL0 Copyright (c) Steve Scherf et al.
# Submitted via: MusiCat 1.1
#
DISCID=9c0a820e
DTITLE=Quinteto Violado - Visão futurística do passado
DYEAR=1900
DGENRE=
TTITLE0=De uma noite de festa/Boa noite meus senhores todos/Meu S.José/Cavalo 
TTITLE0=Marinho
TTITLE1=Rei e rainha
TTITLE2=Recife
TTITLE3=Leão do norte
TTITLE4=Frevo da primavera
TTITLE5=Palavra acesa
TTITLE6=Vaquejada
TTITLE7=Rio Capibaribe
TTITLE8=Quero mais
TTITLE9=Sete meninas
TTITLE10=Toda vez que eu te vejo
TTITLE11=Juazeiro
TTITLE12=Caboclo sonhador
TTITLE13=Olha pro céu
EXTD=\n\n
EXTT0=
EXTT1=
EXTT2=
EXTT3=
EXTT4=
EXTT5=
EXTT6=
EXTT7=
EXTT8=
EXTT9=
EXTT10=
EXTT11=
EXTT12=
EXTT13=
PLAYORDER=
